<svg id="Capa_1" enable-background="new 0 0 512 512" height="512" viewBox="0 0 512 512" width="512" xmlns="http://www.w3.org/2000/svg"><g id="Happy_2_"><g><path d="m100.392 136.143-28.301-14.868-28.301 14.868c-5.038 2.636-11.161 2.211-15.79-1.143s-6.943-9.038-5.977-14.663l5.42-31.509-22.881-22.309c-4.102-3.984-5.566-9.946-3.809-15.366 1.758-5.435 6.475-9.39 12.1-10.21l31.641-4.6 14.15-28.653c5.039-10.254 21.855-10.254 26.895 0l14.15 28.652 31.641 4.6c5.625.82 10.342 4.775 12.1 10.21 1.758 5.42.293 11.382-3.809 15.366l-22.881 22.31 5.42 31.509c.967 5.625-1.348 11.309-5.977 14.663-4.459 3.257-10.574 3.89-15.791 1.143z" fill="#ffdf40"/></g><g><path d="m284.209 136.143-28.301-14.868-28.301 14.868c-5.039 2.637-11.162 2.212-15.791-1.143s-6.943-9.038-5.977-14.663l5.42-31.509-22.881-22.31c-4.102-3.984-5.566-9.946-3.809-15.366 1.758-5.435 6.475-9.39 12.1-10.21l31.641-4.6 14.15-28.652c5.039-10.254 21.855-10.254 26.895 0l14.15 28.652 31.641 4.6c5.625.82 10.342 4.775 12.1 10.21 1.758 5.42.293 11.382-3.809 15.366l-22.881 22.31 5.42 31.509c.967 5.625-1.348 11.309-5.977 14.663-4.458 3.257-10.573 3.89-15.79 1.143z" fill="#ffdf40"/></g><g><path d="m468.209 136.143-28.301-14.868-28.301 14.868c-5.039 2.637-11.162 2.212-15.791-1.143s-6.943-9.038-5.977-14.663l5.42-31.509-22.881-22.31c-4.102-3.984-5.566-9.946-3.809-15.366 1.758-5.435 6.475-9.39 12.1-10.21l31.641-4.6 14.15-28.652c5.039-10.254 21.855-10.254 26.895 0l14.15 28.652 31.641 4.6c5.625.82 10.342 4.775 12.1 10.21 1.758 5.42.293 11.382-3.809 15.366l-22.881 22.31 5.42 31.509c.967 5.625-1.348 11.309-5.977 14.663-4.458 3.257-10.573 3.89-15.79 1.143z" fill="#ffdf40"/></g><g><path d="m255.979 512c-90.967 0-165-74.019-165-165s74.033-165 165-165 165 74.019 165 165-74.033 165-165 165z" fill="#ffdf40"/></g><path d="m420.978 346.999c0-90.981-74.033-165-165-165v330c90.967 0 165-74.019 165-165z" fill="#ffbe40"/><g><path d="m255.979 437c-57.891 0-105-47.109-105-105 0-8.291 6.709-15 15-15h180c8.291 0 15 6.709 15 15 0 57.891-47.11 105-105 105z" fill="#f98845"/></g><g><circle cx="210.979" cy="272" fill="#67548c" r="15"/></g></g><g><g><g><circle cx="300.979" cy="272" fill="#544473" r="15"/></g></g></g><g><g id="Happy_1_"><g><path d="m100.392 136.143-28.301-14.868-28.301 14.868c-5.038 2.636-11.161 2.211-15.79-1.143s-6.943-9.038-5.977-14.663l5.42-31.509-22.881-22.309c-4.102-3.984-5.566-9.946-3.809-15.366 1.758-5.435 6.475-9.39 12.1-10.21l31.641-4.6 14.15-28.653c5.039-10.254 21.855-10.254 26.895 0l14.15 28.652 31.641 4.6c5.625.82 10.342 4.775 12.1 10.21 1.758 5.42.293 11.382-3.809 15.366l-22.881 22.31 5.42 31.509c.967 5.625-1.348 11.309-5.977 14.663-4.459 3.257-10.574 3.89-15.791 1.143z" fill="#ffdf40"/></g><g><circle cx="210.979" cy="272" fill="#67548c" r="15"/></g></g><path d="m345.978 316.999h-90v120c57.891 0 105-47.109 105-105 0-8.291-6.709-15-15-15z" fill="#f36a3d"/><path d="m300 135c4.629-3.354 6.943-9.038 5.977-14.663l-5.42-31.509 22.881-22.31c4.102-3.984 5.566-9.946 3.809-15.366-1.758-5.435-6.475-9.39-12.1-10.21l-31.641-4.6-14.151-28.652c-2.519-5.127-7.983-7.69-13.447-7.69v121.274l28.301 14.868c5.216 2.747 11.332 2.114 15.791-1.142z" fill="#ffbe40"/></g><g><g><g><circle cx="300.979" cy="272" fill="#544473" r="15"/></g></g></g><g fill="#ffbe40"><path d="m100.392 136.143c5.217 2.747 11.332 2.113 15.791-1.143 4.629-3.354 6.943-9.038 5.977-14.663l-5.42-31.509 22.881-22.31c4.102-3.984 5.566-9.946 3.809-15.366-1.758-5.435-6.475-9.39-12.1-10.21l-31.641-4.6-14.15-28.652c-2.52-5.127-7.984-7.69-13.447-7.69v121.274z"/><path d="m484 135c4.629-3.354 6.943-9.038 5.977-14.663l-5.42-31.509 22.881-22.31c4.102-3.984 5.566-9.946 3.809-15.366-1.758-5.435-6.475-9.39-12.1-10.21l-31.641-4.6-14.15-28.652c-2.52-5.127-7.984-7.69-13.447-7.69v121.274l28.301 14.868c5.216 2.747 11.332 2.114 15.79-1.142z"/></g></svg>