<?xml version="1.0" encoding="iso-8859-1"?>
<!-- Generator: Adobe Illustrator 19.0.0, SVG Export Plug-In . SVG Version: 6.00 Build 0)  -->
<svg version="1.1" id="Capa_1" xmlns="http://www.w3.org/2000/svg" xmlns:xlink="http://www.w3.org/1999/xlink" x="0px" y="0px"
	 viewBox="0 0 512 512" style="enable-background:new 0 0 512 512;" xml:space="preserve">
<path style="fill:#87CED9;" d="M324.267,110.933h-85.333c-28.279,0-51.2,22.921-51.2,51.2v102.4H230.4v34.133h102.4v-34.133h42.667
	v-102.4C375.467,133.854,352.546,110.933,324.267,110.933z"/>
<rect x="273.067" y="110.933" style="fill:#1F507A;" width="17.067" height="93.867"/>
<path style="fill:#FEC9A3;" d="M281.6,8.533L281.6,8.533c18.85,0,34.133,15.283,34.133,34.133V76.8
	c0,18.85-15.283,34.133-34.133,34.133l0,0c-18.85,0-34.133-15.283-34.133-34.133V42.667C247.467,23.817,262.75,8.533,281.6,8.533z"
	/>
<path style="fill:#F9B44D;" d="M290.133,8.533h-51.2c0,14.14,11.46,25.6,25.6,25.6h51.2C315.733,19.994,304.273,8.533,290.133,8.533
	z"/>
<g>
	<path style="fill:#266599;" d="M324.267,110.933L281.6,196.267l-42.667-85.333c-28.279,0-51.2,22.921-51.2,51.2v102.4H230.4v34.133
		h102.4v-34.133h42.667v-102.4C375.467,133.854,352.546,110.933,324.267,110.933z"/>
	<polygon style="fill:#266599;" points="332.8,477.867 332.8,298.667 281.6,298.667 230.4,298.667 230.4,477.867 213.333,503.467 
		281.6,503.467 349.867,503.467 	"/>
</g>
<g>
	<rect x="187.733" y="264.533" style="fill:#FEC9A3;" width="42.667" height="34.133"/>
	<rect x="332.8" y="264.533" style="fill:#FEC9A3;" width="42.667" height="34.133"/>
</g>
<g>
	<rect x="273.067" y="324.267" style="fill:#18588C;" width="17.067" height="179.2"/>
	<rect x="221.867" y="179.2" style="fill:#18588C;" width="17.067" height="85.333"/>
	<rect x="324.267" y="179.2" style="fill:#18588C;" width="17.067" height="85.333"/>
</g>
<polygon style="fill:#824A24;" points="136.533,332.8 136.533,392.533 281.6,392.533 281.6,332.8 204.8,349.867 "/>
<polygon style="fill:#91562F;" points="136.533,298.667 136.533,332.8 204.8,349.867 281.6,332.8 281.6,298.667 "/>
<g>
	<rect x="273.067" y="221.867" style="fill:#1F507A;" width="17.067" height="17.067"/>
	<rect x="273.067" y="256" style="fill:#1F507A;" width="17.067" height="17.067"/>
</g>
<path d="M221.867,475.307l-15.633,23.45c-2.603,3.934-1.527,9.225,2.406,11.827c1.391,0.922,3.021,1.416,4.693,1.416h136.533
	c4.71,0,8.533-3.823,8.533-8.533c0-1.69-0.495-3.337-1.434-4.736l-15.633-23.424V307.2H384V162.133
	c-0.034-32.973-26.761-59.699-59.733-59.733h-8.755c5.649-7.339,8.721-16.341,8.755-25.6V42.667
	c-0.017-2.005-0.196-4.002-0.521-5.973c0.307-0.819,0.478-1.681,0.521-2.56C324.267,15.283,308.983,0,290.133,0h-51.2
	c-4.71,0-8.533,3.823-8.533,8.533c0.026,8.977,3.593,17.587,9.924,23.953c-0.879,3.328-1.34,6.741-1.391,10.18V76.8
	c0.034,9.259,3.106,18.261,8.755,25.6h-8.755c-32.973,0.034-59.699,26.761-59.733,59.733v128H128v110.933h93.867V475.307z
	 M273.067,494.933h-43.785l8.218-12.331c0.93-1.408,1.434-3.055,1.434-4.736v-76.8h34.133V494.933z M290.133,494.933V307.2h34.133
	v170.667c0,1.681,0.503,3.328,1.434,4.736l8.218,12.331H290.133z M366.933,290.133h-25.6v-17.067h25.6V290.133z M310.46,119.467
	l-20.326,40.653v-40.653H310.46z M307.2,76.8c0,14.14-11.46,25.6-25.6,25.6c-14.14,0-25.6-11.46-25.6-25.6V42.667
	c0-0.358,0-0.717,0-1.075c0.751,0.196,1.519,0.299,2.278,0.435c0.495,0.094,0.973,0.213,1.476,0.282
	c1.579,0.23,3.183,0.35,4.779,0.358H307.2V76.8z M273.067,119.467v40.653l-20.326-40.653H273.067z M290.133,17.067
	c6.093,0,11.725,3.26,14.771,8.533h-40.371c-6.084-0.017-11.708-3.268-14.763-8.533H290.133z M196.267,162.133
	c0.068-21.555,16.239-39.663,37.649-42.155l40.047,80.102c2.099,4.215,7.228,5.931,11.443,3.831
	c1.655-0.828,3.004-2.167,3.831-3.831l40.047-80.102c21.41,2.492,37.581,20.599,37.649,42.155V256h-25.6v-85.333h-17.067v119.467
	h-85.333V170.667h-17.067V256h-25.6V162.133z M196.267,273.067h25.6v17.067h-25.6V273.067z M145.067,307.2h128v18.773
	l-68.147,15.147l-59.853-14.985V307.2z M145.067,384v-40.269l59.614,14.899l68.386-15.198V384H145.067z"/>
<rect x="273.067" y="221.867" width="17.067" height="17.067"/>
<rect x="273.067" y="256" width="17.067" height="17.067"/>
<g>
</g>
<g>
</g>
<g>
</g>
<g>
</g>
<g>
</g>
<g>
</g>
<g>
</g>
<g>
</g>
<g>
</g>
<g>
</g>
<g>
</g>
<g>
</g>
<g>
</g>
<g>
</g>
<g>
</g>
</svg>
